<svg xmlns="http://www.w3.org/2000/svg" xmlns:xlink="http://www.w3.org/1999/xlink" width="40" zoomAndPan="magnify" viewBox="0 0 30 30.000001" height="40" preserveAspectRatio="xMidYMid meet" version="1.0"><defs><clipPath id="50182b1830"><path d="M 3.386719 3.886719 L 25.886719 3.886719 L 25.886719 23 L 3.386719 23 Z M 3.386719 3.886719 " clip-rule="nonzero"/></clipPath><clipPath id="e973cfb646"><path d="M 7 18 L 22 18 L 22 26.386719 L 7 26.386719 Z M 7 18 " clip-rule="nonzero"/></clipPath></defs><g clip-path="url(#50182b1830)"><path fill="#473f39" d="M 6.660156 22.882812 C 7.261719 21.382812 8.175781 20.085938 9.339844 19.082031 C 10.039062 18.480469 10.800781 18.007812 11.609375 17.675781 C 10.386719 16.785156 9.589844 15.34375 9.589844 13.71875 C 9.589844 11.019531 11.785156 8.824219 14.484375 8.824219 C 17.183594 8.824219 19.378906 11.019531 19.378906 13.71875 C 19.378906 15.339844 18.585938 16.777344 17.371094 17.667969 C 18.355469 18.066406 19.277344 18.671875 20.085938 19.457031 C 21.050781 20.398438 21.824219 21.570312 22.355469 22.882812 C 24.375 20.871094 25.625 18.085938 25.625 15.007812 C 25.625 8.867188 20.648438 3.886719 14.507812 3.886719 C 8.367188 3.886719 3.386719 8.867188 3.386719 15.007812 C 3.386719 18.085938 4.636719 20.871094 6.660156 22.882812 " fill-opacity="1" fill-rule="nonzero"/></g><path fill="#473f39" d="M 17.871094 13.71875 C 17.871094 11.851562 16.351562 10.332031 14.484375 10.332031 C 12.617188 10.332031 11.097656 11.851562 11.097656 13.71875 C 11.097656 15.585938 12.617188 17.105469 14.484375 17.105469 C 16.351562 17.105469 17.871094 15.585938 17.871094 13.71875 " fill-opacity="1" fill-rule="nonzero"/><g clip-path="url(#e973cfb646)"><path fill="#473f39" d="M 19.03125 20.539062 C 17.757812 19.296875 16.152344 18.613281 14.507812 18.613281 C 12.996094 18.613281 11.546875 19.171875 10.324219 20.226562 C 9.222656 21.175781 8.382812 22.453125 7.878906 23.933594 C 9.730469 25.3125 12.023438 26.125 14.507812 26.125 C 16.992188 26.125 19.285156 25.3125 21.136719 23.933594 C 20.683594 22.617188 19.964844 21.449219 19.03125 20.539062 " fill-opacity="1" fill-rule="nonzero"/></g></svg>